<?xml version="1.0" encoding="UTF-8" standalone="no"?>
<!-- Generator: Adobe Illustrator 18.1.1, SVG Export Plug-In . SVG Version: 6.00 Build 0)  -->

<svg
   xmlns:dc="http://purl.org/dc/elements/1.1/"
   xmlns:cc="http://creativecommons.org/ns#"
   xmlns:rdf="http://www.w3.org/1999/02/22-rdf-syntax-ns#"
   xmlns:svg="http://www.w3.org/2000/svg"
   xmlns="http://www.w3.org/2000/svg"
   xmlns:xlink="http://www.w3.org/1999/xlink"
   xmlns:sodipodi="http://sodipodi.sourceforge.net/DTD/sodipodi-0.dtd"
   xmlns:inkscape="http://www.inkscape.org/namespaces/inkscape"
   version="1.1"
   x="0px"
   y="0px"
   viewBox="-35 250.6 350 100"
   enable-background="new -35 250.6 750 100"
   xml:space="preserve"
   id="svg3573"
   inkscape:version="0.91 r"
   sodipodi:docname="banner-m.svg"
   inkscape:export-filename="D:\Github\noitedamedicina.github.io\banner-m.png"
   inkscape:export-xdpi="90"
   inkscape:export-ydpi="90"
   width="350"
   height="100"><metadata
     id="metadata3712"><rdf:RDF><cc:Work
         rdf:about=""><dc:format>image/svg+xml</dc:format><dc:type
           rdf:resource="http://purl.org/dc/dcmitype/StillImage" /><dc:title></dc:title></cc:Work></rdf:RDF></metadata><defs
     id="defs3710"><radialGradient
       id="path4506_3_-3"
       cx="356.53909"
       cy="568.0451"
       r="20.382401"
       gradientTransform="matrix(0.4275,-0.6802,-0.7274,-0.4572,259.12918,811.37995)"
       gradientUnits="userSpaceOnUse"><stop
         offset="0"
         style="stop-color:#FFFFFF"
         id="stop3666-6" /><stop
         offset="1"
         style="stop-color:#FFFFFF;stop-opacity:0.3068"
         id="stop3668-1" /></radialGradient><radialGradient
       id="path4506_3_-3-7"
       cx="356.53909"
       cy="568.0451"
       r="20.382401"
       gradientTransform="matrix(0.4275,-0.6802,-0.7274,-0.4572,221.65268,765.09712)"
       gradientUnits="userSpaceOnUse"><stop
         offset="0"
         style="stop-color:#FFFFFF"
         id="stop3666-6-8" /><stop
         offset="1"
         style="stop-color:#FFFFFF;stop-opacity:0.3068"
         id="stop3668-1-2" /></radialGradient><radialGradient
       id="path4506_3_-3-7-9"
       cx="356.53909"
       cy="568.0451"
       r="20.382401"
       gradientTransform="matrix(0.4275,-0.6802,-0.7274,-0.4572,259.0684,809.16326)"
       gradientUnits="userSpaceOnUse"><stop
         offset="0"
         style="stop-color:#FFFFFF"
         id="stop3666-6-8-0" /><stop
         offset="1"
         style="stop-color:#FFFFFF;stop-opacity:0.3068"
         id="stop3668-1-2-8" /></radialGradient><filter
       id="filter3319-8"
       inkscape:collect="always"><feBlend
         mode="screen"
         in2="BackgroundImage"
         id="feBlend3321-1"
         inkscape:collect="always" /></filter></defs><sodipodi:namedview
     pagecolor="#323232"
     bordercolor="#666666"
     borderopacity="1"
     objecttolerance="10"
     gridtolerance="10"
     guidetolerance="10"
     inkscape:pageopacity="0"
     inkscape:pageshadow="2"
     inkscape:window-width="1920"
     inkscape:window-height="1017"
     id="namedview3708"
     showgrid="false"
     showguides="true"
     inkscape:zoom="1.0974297"
     inkscape:cx="-39.91266"
     inkscape:cy="240.58047"
     inkscape:window-x="-8"
     inkscape:window-y="-8"
     inkscape:window-maximized="1"
     inkscape:current-layer="svg3029"><inkscape:grid
       type="xygrid"
       id="grid4836" /></sodipodi:namedview><filter
     id="filter3319"
     inkscape:collect="always"><feBlend
       mode="screen"
       in2="BackgroundImage"
       id="feBlend3321"
       inkscape:collect="always" /></filter><g
     id="svg3029"
     inkscape:export-ydpi="300"
     inkscape:export-xdpi="300"
     inkscape:export-filename="C:\Users\SONY\Google Drive\Rui JP\Logo Final\Todo la dentro_candeeiro esquerda.png"
     inkscape:version="0.91 r13725"
     sodipodi:docname="ndm esfera novo degrade.svg"
     style="display:inline"><sodipodi:namedview
       showguides="false"
       fit-margin-left="0"
       fit-margin-top="0"
       units="mm"
       showgrid="false"
       inkscape:cy="204.47662"
       inkscape:cx="479.3022"
       inkscape:zoom="1.0160211"
       borderopacity="1.0"
       bordercolor="#666666"
       pagecolor="#ffffff"
       id="base"
       inkscape:snap-text-baseline="false"
       fit-margin-bottom="0"
       fit-margin-right="0"
       inkscape:window-maximized="1"
       inkscape:window-y="-8"
       inkscape:window-x="-8"
       inkscape:window-height="706"
       inkscape:pageshadow="2"
       inkscape:document-units="mm"
       inkscape:pageopacity="0.0"
       inkscape:window-width="1366"
       inkscape:current-layer="layer1" /><g
       id="layer3"
       inkscape:label="Layer#1"
       inkscape:groupmode="layer"
       display="none"
       style="display:none"><radialGradient
         id="path3035_1_"
         cx="286.996"
         cy="467.48071"
         r="191.9286"
         gradientTransform="matrix(-1.6202,-0.7151,0.5154,-1.1679,422.3466,1078.39)"
         gradientUnits="userSpaceOnUse"><stop
           offset="0"
           style="stop-color:#FEFFFF"
           id="stop3586" /><stop
           offset="0.6113"
           style="stop-color:#015677"
           id="stop3588" /><stop
           offset="1"
           style="stop-color:#000A1C"
           id="stop3590" /></radialGradient><circle
         id="path3035"
         display="inline"
         cx="283.60001"
         cy="285.29999"
         r="191.39999"
         style="display:inline;fill:url(#path3035_1_)" /></g><g
       id="layer2"
       inkscape:label="Layer"
       inkscape:groupmode="layer"
       display="none"
       style="display:none"><g
         display="inline"
         id="g3594"
         style="display:inline"><defs
           id="defs3596"><circle
             id="SVGID_1_"
             cx="283.79999"
             cy="285.79999"
             r="191.39999" /></defs><clipPath
           id="SVGID_2_"><use
             xlink:href="#SVGID_1_"
             overflow="visible"
             id="use3600"
             style="overflow:visible"
             x="0"
             y="0"
             width="100%"
             height="100%" /></clipPath><g
           clip-path="url(#SVGID_2_)"
           enable-background="new    "
           id="g3602"><image
             sodipodi:absref="D:\Github\noitedamedicina.github.io\A789189A.jpeg"
             xlink:href="A789189A.jpeg"
             overflow="visible"
             width="5616"
             height="3744"
             id="image3239"
             transform="matrix(0.1114,0,0,0.1114,-75.4879,74.057)"
             style="overflow:visible" /></g></g></g><g
       inkscape:groupmode="layer"
       id="layer6"
       inkscape:label="Layer 2"
       style="display:inline"><path
         inkscape:connector-curvature="0"
         id="path4734"
         style="display:inline;opacity:0.90280002;fill:none;fill-opacity:1;stroke:#ffffff;stroke-width:2.5;stroke-miterlimit:4;stroke-dasharray:none;stroke-opacity:1;filter:url(#filter3319-8)"
         d="m -2.7999998,254.82073 c -2.6,-0.1 -6.4000002,2.1 -7.8000002,3.6 0,4 1.2,2.9 2.9000002,2.7 2.1,0.5 1.4,2 0.3,2.9 -2.1000002,1.5 -8.0000002,-1.3 -10.0000002,1.6 -0.3,0.4 0.2,2 1.1,2.6 l -5.3,9.6 c -0.6,1.6 -1.6,2.8 -3.6,3.1 -1,0.9 -3.3,1.4 -3.9,1.6 1.1,1.4 2.8,2.5 4.2,3.8 l 8.4,28.8 c 1.2,1.2 3,1.9 4.5,2.9 1.5,2.1 3.2,3.7 4.7000002,5.8 l 12.3,0.5 c 2,0.3 1.6,-2.3 2.4,-3.5 1.6,-1.7 3.7999998,-3 5.5999998,-4.5 l 6,-26.3 c 0.3,-1.6 3,-1.2 4.3,-2 l -6.7,-6 c -1.9,-3.1 -3.4,-6.4 -5.2,-9.6 -0.9,-1.6 -1.9999998,-3.5 -2.9999998,-5.6 1.6999998,-1.6 1.1,-2.3 0.6,-2.7 -0.7,-0.6 -2.2,-0.7 -7,-0.4 -4.8,0.3 -1.59999995,-3.7 0.9,-2.8 2.2,0.4 1.6,-3.7 1.6,-3.7 0,0 -2.7,-1.9 -6.7,-2.5 -0.2,0.1 -0.4,0.1 -0.6,0.1 z m -3.4,70.01658 c -1.2,2.3 1.3,4 1.3,6.4 0.4,6.8 0,13.20001 0.2,19.90001 -0.8452344,7.06211 1.1251193,13.68564 0.4,20.1 -0.1,9.1 0,14.6 0,14.6 3,1.7 4.90000005,2.6 7.4,3.8 0,0 0.3,-4.6 -0.1,-9.1 -0.6,-8.6 -1.4,-17.2 -1.1,-25.8 0.2,-8.6 0.3,-17.20001 0.7,-25.80001 0.1,-1.3 0.4,-2.7 0.6,-4 -5.111773,-5.75069 -7.2141366,-7.03165 -9.4,-0.1 z"
         sodipodi:nodetypes="cccccccccccccccccccsccsccccccccccccccc" /></g><g
       id="layer1"
       transform="translate(-75,-82.875)"
       inkscape:label="Layer 1"
       inkscape:groupmode="layer"
       style="display:inline;opacity:1;filter:url(#filter3319)"><g
         id="g7564_1_"
         transform="matrix(-1.2125243,0,0,1.2125243,1139.0255,397.87314)"
         display="none"
         style="display:none"><g
           id="g7998_8_"
           transform="matrix(1.8044207,0,0,1.8059588,133.01457,-229.17418)"
           display="inline"
           style="display:inline"><g
             id="Shape_9_8_"
             transform="matrix(1.1855182,0.11668179,-0.14964213,0.92597118,-26.473261,-20.313176)"><g
               id="g7567_8_"
               transform="matrix(1.1325246,-0.01744501,-0.01747476,0.9962854,-33.770369,5.4518036)"><polygon
                 id="rect7569_8_"
                 points="191.9,151.6 186.2,131.9 187.6,131.5 193.3,151.2 "
                 style="fill:#ffffff" /></g></g><g
             id="Shape_11_8_"><g
               id="g7572_8_"><rect
                 id="rect7574_8_"
                 x="176.60001"
                 y="132.39999"
                 transform="matrix(0.8995,0.437,-0.437,0.8995,71.0538,-65.3207)"
                 width="1.7"
                 height="0"
                 style="fill:#ffffff" /></g></g><g
             id="g7576_8_"><g
               id="Shape_10_8_"><g
                 id="g7579_8_"
                 transform="matrix(1,0,0,0.98819163,0,1.6036083)"><polygon
                   id="rect7581_8_"
                   points="167,142.5 165.4,142 174.3,111.2 175.9,111.7 "
                   style="fill:#ffffff" /></g></g><g
               id="Shape_7_8_"
               transform="matrix(0.83712558,0,0,1,43.055095,0)"><g
                 id="g7584_8_"><rect
                   id="rect7586_8_"
                   x="80.5"
                   y="132.5"
                   transform="matrix(0.9734,0.2289,-0.2289,0.9734,33.0296,-21.5065)"
                   width="57.5"
                   height="0"
                   style="fill:#ffffff" /></g></g><g
               id="Shape_7_copy_8_"><g
                 id="g7589_8_"><rect
                   id="rect7591_8_"
                   x="178.2"
                   y="132.5"
                   transform="matrix(0.9812,0.1931,-0.1931,0.9812,30.4585,-49.2076)"
                   width="178.8"
                   height="0"
                   style="fill:#ffffff" /></g></g><g
               id="Shape_8_8_"
               transform="matrix(0.96136465,0.26389129,-0.2755127,0.9223838,52.121617,-59.132804)"><g
                 id="g7594_8_"
                 transform="matrix(1.1479019,0,0,0.9760208,-39.595017,3.7587932)"><polygon
                   id="rect7596_8_"
                   points="171.6,162.7 169.9,162.4 171.3,153.1 173,153.3 "
                   style="fill:#ffffff" /></g></g></g></g></g><radialGradient
         id="path7612_3_"
         cx="515.03363"
         cy="181.59979"
         r="28.1947"
         gradientTransform="matrix(-0.7999,1.9619,1.5778,0.6433,216.4662,-723.14072)"
         gradientUnits="userSpaceOnUse"><stop
           offset="0"
           style="stop-color:#FDDF00"
           id="stop3628" /><stop
           offset="1"
           style="stop-color:#FDBF00"
           id="stop3630" /></radialGradient><path
         id="path7612_1_"
         inkscape:connector-curvature="0"
         sodipodi:nodetypes="cccccccccccsccccccccc"
         d="m 85.8,467.36598 c 0,-0.3 0,-0.7 0,-1 0,-2.1 -0.3,-4.1 -2.1,-5.6 -1.1,-0.9 -2.4,-1.3 -3.8,-1.2 -2.1,0.1 -3.6,1.3 -4.9,2.7 -0.3,0.3 -0.4,0.4 0,0.6 1.1,0.5 1.7,1.5 2.7,2.1 0.7,0.4 1.4,0.7 1.3,1.6 -0.1,0.8 -0.1,1.6 -0.1,2.4 0.1,1.2 0.3,2.4 0.5,3.5 0.3,1.3 0.7,2.6 1.4,3.8 0.9,1.5 2.1,2.7 3.3,3.9 1,1.1 2.2,1.8 3.5,2.5 0.1,0.1 0.2,0.2 0.4,0 0.1,-0.2 0.2,-0.3 0.1,-0.5 -0.1,-0.1 -0.2,-0.2 -0.3,-0.3 -1.3,-1 -2,-2.4 -2.2,-4 -0.1,-1 -0.2,-2 -0.3,-3 -0.1,-1 -0.2,-2.1 0,-3.1 0.4,-1.5 0.4,-2.9 0.5,-4.4 l 0,0 z"
         style="fill:url(#path7612_3_)" /><linearGradient
         id="path7151_3_"
         gradientUnits="userSpaceOnUse"
         x1="169.8978"
         y1="244.6584"
         x2="195.7189"
         y2="241.8777"
         gradientTransform="matrix(1,0,0,-0.9516,-91,668.29398)"><stop
           offset="0"
           style="stop-color:#000000"
           id="stop3634" /><stop
           offset="1"
           style="stop-color:#5D5D6B"
           id="stop3636" /></linearGradient><path
         id="path7662-6_1_"
         inkscape:connector-curvature="0"
         d="m 88.4,410.46598 c 0,0.7 -0.9,1.2 -1.7,0.9 -0.9,-0.3 -1.7,-0.7 -2.3,-1.5 -0.3,-0.4 -0.6,-0.9 -0.3,-1.4 0.4,-0.5 0.8,-0.6 1.5,-0.4 1,0.3 1.7,1 2.4,1.7 0.3,0.2 0.4,0.5 0.4,0.7 z" /><radialGradient
         id="path4508_3_"
         cx="356.53909"
         cy="568.0451"
         r="20.382401"
         gradientTransform="matrix(0.4275,-0.6802,-0.7274,-0.4572,334.0684,894.3085)"
         gradientUnits="userSpaceOnUse"><stop
           offset="0"
           style="stop-color:#FFFFFF"
           id="stop3648" /><stop
           offset="1"
           style="stop-color:#FFFFFF;stop-opacity:0.3068"
           id="stop3650" /></radialGradient><radialGradient
         id="path4502_3_"
         cx="356.53909"
         cy="568.0451"
         r="20.382401"
         gradientTransform="matrix(0.4275,-0.6802,-0.7274,-0.4572,334.0684,894.3085)"
         gradientUnits="userSpaceOnUse"><stop
           offset="0"
           style="stop-color:#FFFFFF"
           id="stop3654" /><stop
           offset="1"
           style="stop-color:#FFFFFF;stop-opacity:0.3068"
           id="stop3656" /></radialGradient><radialGradient
         id="path4504_3_"
         cx="356.53909"
         cy="568.0451"
         r="20.382401"
         gradientTransform="matrix(0.4275,-0.6802,-0.7274,-0.4572,334.0684,894.3085)"
         gradientUnits="userSpaceOnUse"><stop
           offset="0"
           style="stop-color:#FFFFFF"
           id="stop3660" /><stop
           offset="1"
           style="stop-color:#FFFFFF;stop-opacity:0.3068"
           id="stop3662" /></radialGradient><radialGradient
         id="path4506_3_"
         cx="356.53909"
         cy="568.0451"
         r="20.382401"
         gradientTransform="matrix(0.4275,-0.6802,-0.7274,-0.4572,334.0684,894.3085)"
         gradientUnits="userSpaceOnUse"><stop
           offset="0"
           style="stop-color:#FFFFFF"
           id="stop3666" /><stop
           offset="1"
           style="stop-color:#FFFFFF;stop-opacity:0.3068"
           id="stop3668" /></radialGradient><g
         id="g4532"
         transform="translate(0,1.6108248)"><g
           id="g4556"
           style="stroke:#ffffff;stroke-opacity:1" /><g
           id="g4563"><path
             style="display:inline;opacity:0.90280002;fill:url(#path7151_3_);stroke:#ffffff;stroke-width:0;stroke-miterlimit:4;stroke-dasharray:none;stroke-opacity:1;filter:url(#filter3319)"
             d="m 69.2,399.01658 c -0.8,0.2 -1.5,0.9 -1.7,1.7 -0.4,0.3 -0.2,1.1 0.3,1.1 1.3,0.8 2.3,1.7 1,4.3 -1.2,2.3 1.3,4 1.3,6.4 0.4,6.8 0,13.2 0.2,19.9 0.1,4.9 0.1,10.2 0.1,15.1 0.2,1.6 0.5,3.4 0.3,5 -0.1,9.1 0,14.6 0,14.6 3,1.7 4.9,2.6 7.4,3.8 0,0 0.3,-4.6 -0.1,-9.1 -0.6,-8.6 -1.4,-17.2 -1.1,-25.8 0.2,-8.6 0.3,-17.2 0.7,-25.8 0.1,-1.3 0.4,-2.7 0.6,-4 0.1,-0.9 0.2,-1.8 -0.2,-2.6 -0.7,-1 -1.9,-1.3 -2.8,-1.9 -0.5,-0.3 -1.1,-0.5 -1.6,0 -0.5,0.4 -0.5,1.4 0.2,1.7 0.5,0.3 1,-0.1 1.5,-0.2 0.5,-0.1 1.1,0.6 0.7,1.1 -0.3,0.6 -1,0.5 -1.6,0.4 -1.3,0 -2.8,0 -3.9,-0.9 -1.2,-0.9 -1.8,-2.8 -1,-4.2 0.2,-0.3 0.1,-0.7 -0.3,-0.6 z"
             sodipodi:nodetypes="cccsccccccccccccccccccccc"
             inkscape:connector-curvature="0"
             id="path7151_1_"
             transform="translate(0,-3.8964844e-6)" /><path
             style="display:inline;opacity:0.90280002;stroke:#ffffff;stroke-width:0;stroke-miterlimit:4;stroke-dasharray:none;stroke-opacity:1;filter:url(#filter3319)"
             d="m 72.2,336.1 c -2.6,-0.1 -6.4,2.1 -7.8,3.6 0,4 1.2,2.9 2.9,2.7 2.1,0.5 1.4,2 0.3,2.9 -2.1,1.5 -8,-1.3 -10,1.6 -0.3,0.4 0.2,2 1.1,2.6 l -5.3,9.6 c -0.6,1.6 -1.6,2.8 -3.6,3.1 -1,0.9 -3.3,1.4 -3.9,1.6 1.1,1.4 2.8,2.5 4.2,3.8 l 8.4,28.8 c 1.2,1.2 3,1.9 4.5,2.9 1.5,2.1 3.2,3.7 4.7,5.8 l 12.3,0.5 c 2,0.3 1.6,-2.3 2.4,-3.5 1.6,-1.7 3.8,-3 5.6,-4.5 l 6,-26.3 c 0.3,-1.6 3,-1.2 4.3,-2 l -6.7,-6 c -1.9,-3.1 -3.4,-6.4 -5.2,-9.6 -0.9,-1.6 -2,-3.5 -3,-5.6 1.7,-1.6 1.1,-2.3 0.6,-2.7 -0.7,-0.6 -2.2,-0.7 -7,-0.4 -4.8,0.3 -1.6,-3.7 0.9,-2.8 2.2,0.4 1.6,-3.7 1.6,-3.7 0,0 -2.7,-1.9 -6.7,-2.5 -0.2,0.1 -0.4,0.1 -0.6,0.1 l 0,0 z M 82,364 79.3,392.5 60.3,393.7 52.9,366.9 82,364 Z m 2,0.7 7.4,4.9 -5.4,25.7 -5.2,-2.8 3.2,-27.8 z m -6.1,29.3 -2.2,3.1 -8.4,0.6 -4.4,-2.5 15,-1.2 z"
             inkscape:connector-curvature="0"
             id="path7155_1_"
             transform="translate(0,-3.8964844e-6)" /><path
             id="path4508_1_"
             inkscape:connector-curvature="0"
             sodipodi:nodetypes="cccccc"
             d="m 83.2,396.2 -2.2,0.7 -2.8,0 0.7,-1.7 1.2,-0.7 3.1,1.7 z"
             style="fill:url(#path4508_3_)" /><path
             id="path4502_1_"
             inkscape:connector-curvature="0"
             d="m 82,364 -2.7,28.5 -19,1.2 L 52.9,366.9 82,364 Z"
             style="fill:url(#path4502_3_)" /><path
             id="path4504_1_"
             inkscape:connector-curvature="0"
             d="m 84,364.7 -3.2,27.7 5.2,2.8 5.4,-25.6 -7.4,-4.9 0,0 z"
             style="fill:url(#path4504_3_)" /><path
             id="path4506_1_"
             inkscape:connector-curvature="0"
             sodipodi:nodetypes="ccccc"
             d="m 63,395.2 15,-1.2 -2.2,3.1 -8.4,0.6 -4.4,-2.5 z"
             style="fill:url(#path4506_3_)" /></g></g><radialGradient
         id="path7626_3_"
         cx="677.24872"
         cy="227.9977"
         r="28.1947"
         gradientTransform="matrix(-0.6172,0.6407,1.2272,1.1821,222.4816,-301.22232)"
         gradientUnits="userSpaceOnUse"><stop
           offset="0"
           style="stop-color:#FDEF00"
           id="stop3672" /><stop
           offset="1"
           style="stop-color:#FDBF00"
           id="stop3674" /></radialGradient><path
         id="path7626_1_"
         inkscape:export-ydpi="300"
         inkscape:export-xdpi="300"
         inkscape:connector-curvature="0"
         sodipodi:nodetypes="cccccccccccscccczcccccccccccc"
         d="m 81.1,399.76598 c 1.4,0.7 2.9,1.2 4.1,2.2 1.1,0.9 2.3,1 3.6,1.4 0.9,0.2 1.8,0.6 2.6,1.1 1.4,0.8 2.2,2.1 3,3.4 1.3,2.1 2.3,4.4 3.8,6.4 0.4,0.5 0.7,1 1,1.5 0.5,1.1 0.3,1.9 -0.8,2.3 -1.2,0.5 -2.4,0.8 -3.7,0.7 -0.7,-0.1 -1.4,-0.4 -2.1,-0.7 -0.9,-0.3 -1.8,-0.8 -2.7,-1.2 -1,-0.5 -2,-1 -3,-1.5 -1,-0.6 -2.1,-1.1 -3,-1.8 -1.2,-0.9 -2.1,-1.9 -3.1,-3 -1,-1.2 -1.9,-3 -2.9,-4.1 -0.6,-0.5 -1.2,-1.1 -1.9,-1.4 -2.8,-1 -5.1,0.4 -7.1,3.3 -1.9,2.9 1.5,7.4 1.5,7.4 -0.2,4.3 0,4.9 0,9.1 -11,-5.8 -12.4,-15.7 -5.6,-23.4 5,-5.2 10.1,-4.7 16.3,-1.7 l 0,0 z m 6.9,10.5 c 0,-0.2 0,-0.4 -0.2,-0.5 -0.6,-0.5 -1.1,-1.1 -1.8,-1.3 -0.5,-0.1 -0.9,-0.1 -1.1,0.3 -0.3,0.4 0,0.7 0.2,1 0.4,0.6 1,0.9 1.7,1.1 0.5,0.3 1.2,-0.1 1.2,-0.6 l 0,0 z"
         style="fill:url(#path7626_3_)" /><radialGradient
         id="path7628_3_"
         cx="507.24219"
         cy="181.6035"
         r="28.1947"
         gradientTransform="matrix(-0.6105,2.0289,1.6316,0.491,97.674,-718.29602)"
         gradientUnits="userSpaceOnUse"><stop
           offset="0"
           style="stop-color:#FDDF00"
           id="stop3678" /><stop
           offset="1"
           style="stop-color:#FDBF00"
           id="stop3680" /></radialGradient><path
         id="path7628_1_"
         inkscape:connector-curvature="0"
         sodipodi:nodetypes="cccsccc"
         d="m 79.5,437.86598 c -5.4,4.1 -12.6,8.7 -8.8,15.8 -0.1,6.5 0.1,7.9 0.1,7.9 -4.8,-3 -6.1,-3.9 -6.7,-5.1 -8.1,-15.5 4.7,-18.7 12.8,-27.8 -0.2,-3.7 0.4,-7.8 0.2,-11.2 9.3,5.7 9.7,14.5 2.4,20.4 l 0,0 z"
         style="fill:url(#path7628_3_)" /><path
         id="path7407_1_"
         inkscape:connector-curvature="0"
         d="m 115.4,350.7 c 12.5,5.9 17.9,20.8 12,33.3 -3.7,7.8 -10.8,12.8 -18.6,14.1 11.1,1 22.1,-5 27.2,-15.7 6.5,-13.7 0.6,-30 -13,-36.4 -11,-5.2 -23.8,-2.3 -31.6,6.2 7,-4.4 16,-5.3 24,-1.5 z"
         style="fill:#fed222" /><g
         id="g4718"><g
           style="stroke:#ffffff;stroke-opacity:1"
           id="g4720" /><g
           id="g4722" /></g><text
         style="display:inline;opacity:1;filter:url(#filter3319)"
         enable-background="new    "
         id="text3684-5"
         x="-5.9801283"
         y="405.58145"><tspan
           x="153.31984"
           y="405.58145"
           font-size="60"
           letter-spacing="-2"
           id="tspan3694-8"
           style="font-style:normal;font-variant:normal;font-weight:normal;font-stretch:normal;font-size:60px;font-family:Nyala;-inkscape-font-specification:Nyala;letter-spacing:-2;fill:#ffffff">NDM</tspan><tspan
           x="188.01985"
           y="405.58145"
           font-size="60"
           letter-spacing="-1"
           id="tspan3696-2"
           style="font-style:normal;font-variant:normal;font-weight:normal;font-stretch:normal;font-size:60px;font-family:Nyala;-inkscape-font-specification:Nyala;letter-spacing:-1;fill:#ffffff" /></text>
</g><text
       font-size="72"
       id="text3706"
       style="font-style:normal;font-variant:normal;font-weight:normal;font-stretch:normal;font-size:72px;font-family:Nyala;-inkscape-font-specification:Nyala;fill:#fed222"
       x="198.74605"
       y="322.69519">2015</text>
</g></svg>