<?xml version="1.0" encoding="utf-8"?>
<!-- Generator: Adobe Illustrator 18.1.1, SVG Export Plug-In . SVG Version: 6.00 Build 0)  -->
<svg version="1.1" xmlns="http://www.w3.org/2000/svg" xmlns:xlink="http://www.w3.org/1999/xlink" x="0px" y="0px"
	 viewBox="-35 250.6 750 100" enable-background="new -35 250.6 750 100" xml:space="preserve">
<filter  id="filter3319" inkscape:collect="always">
	<feBlend  mode="screen" in2="BackgroundImage" id="feBlend3321" inkscape:collect="always"></feBlend>
</filter>
<g id="Layer_2">
	<rect x="-35" y="250.2" fill="#222222" width="600" height="102.2"/>
	<polyline fill="#222222" points="665,250.5 665,350.5 565,352.5 565,250.2 	"/>
</g>
<g id="svg3029" xmlns:osb="http://www.openswatchbook.org/uri/2009/osb" xmlns:dc="http://purl.org/dc/elements/1.1/" xmlns:cc="http://creativecommons.org/ns#" xmlns:rdf="http://www.w3.org/1999/02/22-rdf-syntax-ns#" xmlns:svg="http://www.w3.org/2000/svg" xmlns:sodipodi="http://sodipodi.sourceforge.net/DTD/sodipodi-0.dtd" xmlns:inkscape="http://www.inkscape.org/namespaces/inkscape" inkscape:export-ydpi="300" inkscape:export-xdpi="300" inkscape:export-filename="C:\Users\SONY\Google Drive\Rui JP\Logo Final\Todo la dentro_candeeiro esquerda.png" inkscape:version="0.91 r13725" sodipodi:docname="ndm esfera novo degrade.svg">
	
		<sodipodi:namedview  showguides="false" fit-margin-left="0" fit-margin-top="0" units="mm" showgrid="false" inkscape:cy="204.47662" inkscape:cx="479.3022" inkscape:zoom="1.0160211" borderopacity="1.0" bordercolor="#666666" pagecolor="#ffffff" id="base" inkscape:snap-text-baseline="false" fit-margin-bottom="0" fit-margin-right="0" inkscape:window-maximized="1" inkscape:window-y="-8" inkscape:window-x="-8" inkscape:window-height="706" inkscape:pageshadow="2" inkscape:document-units="mm" inkscape:pageopacity="0.0" inkscape:window-width="1366" inkscape:current-layer="layer1">
		</sodipodi:namedview>
	<g id="layer3" inkscape:label="Layer#1" inkscape:groupmode="layer" display="none">
		
			<radialGradient id="path3035_1_" cx="286.996" cy="467.4807" r="191.9286" gradientTransform="matrix(-1.6202 -0.7151 0.5154 -1.1679 422.3466 1078.39)" gradientUnits="userSpaceOnUse">
			<stop  offset="0" style="stop-color:#FEFFFF"/>
			<stop  offset="0.6113" style="stop-color:#015677"/>
			<stop  offset="1" style="stop-color:#000A1C"/>
		</radialGradient>
		<circle id="path3035" display="inline" fill="url(#path3035_1_)" cx="283.6" cy="285.3" r="191.4"/>
	</g>
	<g id="layer2" inkscape:label="Layer" inkscape:groupmode="layer" display="none">
		<g display="inline">
			<defs>
				<circle id="SVGID_1_" cx="283.8" cy="285.8" r="191.4"/>
			</defs>
			<clipPath id="SVGID_2_">
				<use xlink:href="#SVGID_1_"  overflow="visible"/>
			</clipPath>
			<g clip-path="url(#SVGID_2_)" enable-background="new    ">
				
					<image overflow="visible" width="5616" height="3744" id="image3239" xlink:href="A789189A.jpeg"  transform="matrix(0.1114 0 0 0.1114 -75.4879 74.057)">
				</image>
			</g>
		</g>
	</g>
	
		<g id="layer1" transform="translate(-75,-82.875)" inkscape:label="Layer 1" inkscape:groupmode="layer" opacity="0.9028" filter="url(#filter3319)">
		<g id="g7564_1_" transform="matrix(-1.2125243,0,0,1.2125243,1139.0255,397.87314)" display="none">
			<g id="g7998_8_" transform="matrix(1.8044207,0,0,1.8059588,133.01457,-229.17418)" display="inline">
				<g id="Shape_9_8_" transform="matrix(1.1855182,0.11668179,-0.14964213,0.92597118,-26.473261,-20.313176)">
					<g id="g7567_8_" transform="matrix(1.1325246,-0.01744501,-0.01747476,0.9962854,-33.770369,5.4518036)">
						<polygon id="rect7569_8_" fill="#FFFFFF" points="186.2,131.9 187.6,131.5 193.3,151.2 191.9,151.6 						"/>
					</g>
				</g>
				<g id="Shape_11_8_">
					<g id="g7572_8_">
						
							<rect id="rect7574_8_" x="176.6" y="132.4" transform="matrix(0.8995 0.437 -0.437 0.8995 71.0538 -65.3207)" fill="#FFFFFF" width="1.7" height="-21.4"/>
					</g>
				</g>
				<g id="g7576_8_">
					<g id="Shape_10_8_">
						<g id="g7579_8_" transform="matrix(1,0,0,0.98819163,0,1.6036083)">
							<polygon id="rect7581_8_" fill="#FFFFFF" points="165.4,142 174.3,111.2 175.9,111.7 167,142.5 							"/>
						</g>
					</g>
					<g id="Shape_7_8_" transform="matrix(0.83712558,0,0,1,43.055095,0)">
						<g id="g7584_8_">
							
								<rect id="rect7586_8_" x="80.5" y="132.5" transform="matrix(0.9734 0.2289 -0.2289 0.9734 33.0296 -21.5065)" fill="#FFFFFF" width="57.5" height="-1.7"/>
						</g>
					</g>
					<g id="Shape_7_copy_8_">
						<g id="g7589_8_">
							
								<rect id="rect7591_8_" x="178.2" y="132.5" transform="matrix(0.9812 0.1931 -0.1931 0.9812 30.4585 -49.2076)" fill="#FFFFFF" width="178.8" height="-1.7"/>
						</g>
					</g>
					<g id="Shape_8_8_" transform="matrix(0.96136465,0.26389129,-0.2755127,0.9223838,52.121617,-59.132804)">
						<g id="g7594_8_" transform="matrix(1.1479019,0,0,0.9760208,-39.595017,3.7587932)">
							<polygon id="rect7596_8_" fill="#FFFFFF" points="169.9,162.4 171.3,153.1 173,153.3 171.6,162.7 							"/>
						</g>
					</g>
				</g>
			</g>
		</g>
		
			<radialGradient id="path7612_3_" cx="515.0336" cy="181.5998" r="28.1947" gradientTransform="matrix(-0.7999 1.9619 1.5778 0.6433 216.4662 -727.0067)" gradientUnits="userSpaceOnUse">
			<stop  offset="0" style="stop-color:#FDDF00"/>
			<stop  offset="1" style="stop-color:#FDBF00"/>
		</radialGradient>
		
			<path id="path7612_1_" inkscape:connector-curvature="0" sodipodi:nodetypes="cccccccccccsccccccccc" fill="url(#path7612_3_)" d="
			M85.8,463.5c0-0.3,0-0.7,0-1c0-2.1-0.3-4.1-2.1-5.6c-1.1-0.9-2.4-1.3-3.8-1.2c-2.1,0.1-3.6,1.3-4.9,2.7c-0.3,0.3-0.4,0.4,0,0.6
			c1.1,0.5,1.7,1.5,2.7,2.1c0.7,0.4,1.4,0.7,1.3,1.6c-0.1,0.8-0.1,1.6-0.1,2.4c0.1,1.2,0.3,2.4,0.5,3.5c0.3,1.3,0.7,2.6,1.4,3.8
			c0.9,1.5,2.1,2.7,3.3,3.9c1,1.1,2.2,1.8,3.5,2.5c0.1,0.1,0.2,0.2,0.4,0c0.1-0.2,0.2-0.3,0.1-0.5c-0.1-0.1-0.2-0.2-0.3-0.3
			c-1.3-1-2-2.4-2.2-4c-0.1-1-0.2-2-0.3-3c-0.1-1-0.2-2.1,0-3.1C85.7,466.4,85.7,465,85.8,463.5L85.8,463.5z"/>
		
			<linearGradient id="path7151_3_" gradientUnits="userSpaceOnUse" x1="169.8978" y1="244.6584" x2="195.7189" y2="241.8777" gradientTransform="matrix(1 0 0 -0.9516 -91 668.9774)">
			<stop  offset="0" style="stop-color:#000000"/>
			<stop  offset="1" style="stop-color:#5D5D6B"/>
		</linearGradient>
		
			<path id="path7151_1_" inkscape:connector-curvature="0" sodipodi:nodetypes="cccscccccccccccccccccccccccc" fill="url(#path7151_3_)" d="
			M69.2,399.7c-0.8,0.2-1.5,0.9-1.7,1.7c-0.4,0.3-0.2,1.1,0.3,1.1c1.3,0.8,2.3,1.7,1,4.3c-1.2,2.3,1.3,4,1.3,6.4
			c0.4,6.8,0,13.2,0.2,19.9c0.1,4.9,0.1,10.2,0.1,15.1c0.2,1.6,0.5,3.4,0.3,5c-0.1,9.1,0,14.6,0,14.6c3,1.7,4.9,2.6,7.4,3.8
			c0,0,0.3-4.6-0.1-9.1c-0.6-8.6-1.4-17.2-1.1-25.8c0.2-8.6,0.3-17.2,0.7-25.8c0.1-1.3,0.4-2.7,0.6-4c0.1-0.9,0.2-1.8-0.2-2.6
			c-0.7-1-1.9-1.3-2.8-1.9c-0.5-0.3-1.1-0.5-1.6,0c-0.5,0.4-0.5,1.4,0.2,1.7c0.5,0.3,1-0.1,1.5-0.2c0.5-0.1,1.1,0.6,0.7,1.1
			c-0.3,0.6-1,0.5-1.6,0.4c-1.3,0-2.8,0-3.9-0.9c-1.2-0.9-1.8-2.8-1-4.2C69.7,400,69.6,399.6,69.2,399.7L69.2,399.7z M71.4,448.1
			c0.5,0.2,0.2,1.1-0.3,1C70.7,448.8,71,448,71.4,448.1z"/>
		<path id="path7155_1_" inkscape:connector-curvature="0" d="M72.2,336.1c-2.6-0.1-6.4,2.1-7.8,3.6c0,4,1.2,2.9,2.9,2.7
			c2.1,0.5,1.4,2,0.3,2.9c-2.1,1.5-8-1.3-10,1.6c-0.3,0.4,0.2,2,1.1,2.6l-5.3,9.6c-0.6,1.6-1.6,2.8-3.6,3.1c-1,0.9-3.3,1.4-3.9,1.6
			c1.1,1.4,2.8,2.5,4.2,3.8l8.4,28.8c1.2,1.2,3,1.9,4.5,2.9c1.5,2.1,3.2,3.7,4.7,5.8l12.3,0.5c2,0.3,1.6-2.3,2.4-3.5
			c1.6-1.7,3.8-3,5.6-4.5l6-26.3c0.3-1.6,3-1.2,4.3-2l-6.7-6c-1.9-3.1-3.4-6.4-5.2-9.6c-0.9-1.6-2-3.5-3-5.6
			c1.7-1.6,1.1-2.3,0.6-2.7c-0.7-0.6-2.2-0.7-7-0.4c-4.8,0.3-1.6-3.7,0.9-2.8c2.2,0.4,1.6-3.7,1.6-3.7s-2.7-1.9-6.7-2.5
			C72.6,336.1,72.4,336.1,72.2,336.1L72.2,336.1z M82,364l-2.7,28.5l-19,1.2l-7.4-26.8L82,364z M84,364.7l7.4,4.9L86,395.3l-5.2-2.8
			L84,364.7z M77.9,394l-2.2,3.1l-8.4,0.6l-4.4-2.5L77.9,394z"/>
		<path id="path7175_1_" inkscape:connector-curvature="0" fill="#ECECEC" d="M301.5,1021.9c-0.3,3.3-2.5,6.7-6.2,6.6
			c-5.9,1.1-11.8-1.6-17.6,0c-3.6,0.7-8-1.8-11,1.1c2.2,2.1,5.5,3.1,8.5,3.6c0.8-0.2,1.7-1.3,0.7-1.7c-0.6-0.9-0.2-2.6,1.2-1.7
			c6.5,1.2,12.4,5.4,19.2,4.5c4.6-0.2,9.8-0.8,13.5-3.7c-2.5-2-5.8-3.4-7.2-6.6C302.1,1023.5,301.9,1022.5,301.5,1021.9
			L301.5,1021.9z"/>
		<path id="path7177_1_" inkscape:connector-curvature="0" fill="#ECECEC" d="M283.8,1041.5c-2.6,1.3-2.8,5.4-1.7,7.8
			c1.1,2.3,4.6,1.9,5.2-0.6C288.2,1046.2,286.5,1042.1,283.8,1041.5z"/>
		<path id="path7179_1_" inkscape:connector-curvature="0" fill="#ECECEC" d="M296.8,1051.4c-3.3,0.3-1.6,5.2,1.1,4.5
			c2.1-0.4,2.5-3.5,0.4-4.3C297.8,1051.4,297.3,1051.3,296.8,1051.4L296.8,1051.4z"/>
		<path id="path7181_1_" inkscape:connector-curvature="0" fill="#ECECEC" d="M310.1,1050.4c-2.1,0.5-0.4,3.4,1.2,3.1
			c1.5,0.6,2.3-1.3,1-2.1C311.7,1050.9,311,1050.3,310.1,1050.4z"/>
		<path id="path7183_1_" inkscape:connector-curvature="0" fill="#ECECEC" d="M271.4,1041.3c-0.4,3.5-1.1,7.4,0.5,11
			c0.4,1,2.1-2.5,2.5-3.6C275,1046.1,274,1042.4,271.4,1041.3L271.4,1041.3z"/>
		<path id="path7185_1_" inkscape:connector-curvature="0" fill="#ECECEC" d="M273.4,991c-0.7,1.6,1.2,3.4,1.7,4.9
			c1.6,2.1,2.3,4.6,1.7,7.2c0.3,2.5,3.9,1.8,5,0.3c2.1-1.4-0.6-3.7-1.3-5.1C278.5,995.6,276.4,992.7,273.4,991L273.4,991z"/>
		<path id="path7662-6_1_" inkscape:connector-curvature="0" d="M88.4,406.6c0,0.7-0.9,1.2-1.7,0.9c-0.9-0.3-1.7-0.7-2.3-1.5
			c-0.3-0.4-0.6-0.9-0.3-1.4c0.4-0.5,0.8-0.6,1.5-0.4c1,0.3,1.7,1,2.4,1.7C88.3,406.1,88.4,406.4,88.4,406.6z"/>
		
			<radialGradient id="path4508_3_" cx="356.5391" cy="568.0451" r="20.3824" gradientTransform="matrix(0.4275 -0.6802 -0.7274 -0.4572 334.0684 894.3085)" gradientUnits="userSpaceOnUse">
			<stop  offset="0" style="stop-color:#FFFFFF"/>
			<stop  offset="1" style="stop-color:#FFFFFF;stop-opacity:0.3068"/>
		</radialGradient>
		<path id="path4508_1_" inkscape:connector-curvature="0" sodipodi:nodetypes="cccccc" fill="url(#path4508_3_)" d="M83.2,396.2
			l-2.2,0.7h-2.8l0.7-1.7l1.2-0.7L83.2,396.2z"/>
		
			<radialGradient id="path4502_3_" cx="356.5391" cy="568.0451" r="20.3824" gradientTransform="matrix(0.4275 -0.6802 -0.7274 -0.4572 334.0684 894.3085)" gradientUnits="userSpaceOnUse">
			<stop  offset="0" style="stop-color:#FFFFFF"/>
			<stop  offset="1" style="stop-color:#FFFFFF;stop-opacity:0.3068"/>
		</radialGradient>
		<path id="path4502_1_" inkscape:connector-curvature="0" fill="url(#path4502_3_)" d="M82,364l-2.7,28.5l-19,1.2l-7.4-26.8L82,364
			z"/>
		
			<radialGradient id="path4504_3_" cx="356.5391" cy="568.0451" r="20.3824" gradientTransform="matrix(0.4275 -0.6802 -0.7274 -0.4572 334.0684 894.3085)" gradientUnits="userSpaceOnUse">
			<stop  offset="0" style="stop-color:#FFFFFF"/>
			<stop  offset="1" style="stop-color:#FFFFFF;stop-opacity:0.3068"/>
		</radialGradient>
		<path id="path4504_1_" inkscape:connector-curvature="0" fill="url(#path4504_3_)" d="M84,364.7l-3.2,27.7l5.2,2.8l5.4-25.6
			L84,364.7L84,364.7z"/>
		
			<radialGradient id="path4506_3_" cx="356.5391" cy="568.0451" r="20.3824" gradientTransform="matrix(0.4275 -0.6802 -0.7274 -0.4572 334.0684 894.3085)" gradientUnits="userSpaceOnUse">
			<stop  offset="0" style="stop-color:#FFFFFF"/>
			<stop  offset="1" style="stop-color:#FFFFFF;stop-opacity:0.3068"/>
		</radialGradient>
		<path id="path4506_1_" inkscape:connector-curvature="0" sodipodi:nodetypes="ccccc" fill="url(#path4506_3_)" d="M63,395.2
			l15-1.2l-2.2,3.1l-8.4,0.6L63,395.2z"/>
		
			<radialGradient id="path7626_3_" cx="677.2487" cy="227.9977" r="28.1947" gradientTransform="matrix(-0.6172 0.6407 1.2272 1.1821 222.4816 -305.0883)" gradientUnits="userSpaceOnUse">
			<stop  offset="0" style="stop-color:#FDEF00"/>
			<stop  offset="1" style="stop-color:#FDBF00"/>
		</radialGradient>
		
			<path id="path7626_1_" inkscape:export-ydpi="300" inkscape:export-xdpi="300" inkscape:connector-curvature="0" sodipodi:nodetypes="cccccccccccscccczcccccccccccc" fill="url(#path7626_3_)" d="
			M81.1,395.9c1.4,0.7,2.9,1.2,4.1,2.2c1.1,0.9,2.3,1,3.6,1.4c0.9,0.2,1.8,0.6,2.6,1.1c1.4,0.8,2.2,2.1,3,3.4
			c1.3,2.1,2.3,4.4,3.8,6.4c0.4,0.5,0.7,1,1,1.5c0.5,1.1,0.3,1.9-0.8,2.3c-1.2,0.5-2.4,0.8-3.7,0.7c-0.7-0.1-1.4-0.4-2.1-0.7
			c-0.9-0.3-1.8-0.8-2.7-1.2c-1-0.5-2-1-3-1.5c-1-0.6-2.1-1.1-3-1.8c-1.2-0.9-2.1-1.9-3.1-3c-1-1.2-1.9-3-2.9-4.1
			c-0.6-0.5-1.2-1.1-1.9-1.4c-2.8-1-5.1,0.4-7.1,3.3c-1.9,2.9,1.5,7.4,1.5,7.4c-0.2,4.3,0,4.9,0,9.1c-11-5.8-12.4-15.7-5.6-23.4
			C69.8,392.4,74.9,392.9,81.1,395.9L81.1,395.9z M88,406.4c0-0.2,0-0.4-0.2-0.5c-0.6-0.5-1.1-1.1-1.8-1.3c-0.5-0.1-0.9-0.1-1.1,0.3
			c-0.3,0.4,0,0.7,0.2,1c0.4,0.6,1,0.9,1.7,1.1C87.3,407.3,88,406.9,88,406.4L88,406.4z"/>
		
			<radialGradient id="path7628_3_" cx="507.2422" cy="181.6035" r="28.1947" gradientTransform="matrix(-0.6105 2.0289 1.6316 0.491 97.674 -722.162)" gradientUnits="userSpaceOnUse">
			<stop  offset="0" style="stop-color:#FDDF00"/>
			<stop  offset="1" style="stop-color:#FDBF00"/>
		</radialGradient>
		<path id="path7628_1_" inkscape:connector-curvature="0" sodipodi:nodetypes="cccsccc" fill="url(#path7628_3_)" d="M79.5,434
			c-5.4,4.1-12.6,8.7-8.8,15.8c-0.1,6.5,0.1,7.9,0.1,7.9c-4.8-3-6.1-3.9-6.7-5.1c-8.1-15.5,4.7-18.7,12.8-27.8
			c-0.2-3.7,0.4-7.8,0.2-11.2C86.4,419.3,86.8,428.1,79.5,434L79.5,434z"/>
		<path id="path7407_1_" inkscape:connector-curvature="0" fill="#FED222" d="M115.4,350.7c12.5,5.9,17.9,20.8,12,33.3
			c-3.7,7.8-10.8,12.8-18.6,14.1c11.1,1,22.1-5,27.2-15.7c6.5-13.7,0.6-30-13-36.4c-11-5.2-23.8-2.3-31.6,6.2
			C98.4,347.8,107.4,346.9,115.4,350.7z"/>
		<text transform="matrix(1 0 0 1 153.4369 405.5706)" enable-background="new    "><tspan x="0" y="0" fill="#FFFFFF" font-family="'Nyala-Regular'" font-size="60" letter-spacing="-1">NO</tspan><tspan x="72.5" y="0" fill="#FFFFFF" font-family="'Nyala-Regular'" font-size="60" letter-spacing="-2">I</tspan><tspan x="85.1" y="0" fill="#FFFFFF" font-family="'Nyala-Regular'" font-size="60" letter-spacing="-1">TE</tspan><tspan x="142.9" y="0" fill="#FFFFFF" font-family="'Nyala-Regular'" font-size="60" letter-spacing="2"> </tspan><tspan x="159.3" y="0" fill="#FFFFFF" font-family="'Nyala-Regular'" font-size="60" letter-spacing="-2">D</tspan><tspan x="194" y="0" fill="#FFFFFF" font-family="'Nyala-Regular'" font-size="60" letter-spacing="-1">A</tspan><tspan x="226" y="0" fill="#FFFFFF" font-family="'Nyala-Regular'" font-size="60" letter-spacing="2"> </tspan><tspan x="242.3" y="0" fill="#FFFFFF" font-family="'Nyala-Regular'" font-size="60" letter-spacing="-1">MEDICI</tspan><tspan x="409.4" y="0" fill="#FFFFFF" font-family="'Nyala-Regular'" font-size="60" letter-spacing="-1">N</tspan><tspan x="443.1" y="0" fill="#FFFFFF" font-family="'Nyala-Regular'" font-size="60" letter-spacing="-1">A</tspan></text>
	</g>
	<text transform="matrix(1 0 0 1 568.7014 322.6952)" fill="#FED222" font-family="'Nyala-Regular'" font-size="72">2015</text>
</g>
</svg>
